<?xml version="1.0" encoding="UTF-8"?>
<svg version="1.1" xmlns="http://www.w3.org/2000/svg" width="80" height="80">
<path d="M0 0 C0.63164063 0.41378906 1.26328125 0.82757813 1.9140625 1.25390625 C2.60757813 1.67800781 3.30109375 2.10210938 4.015625 2.5390625 C11.11942272 7.31483663 15.71834956 13.99004118 17.9140625 22.25390625 C18.91915031 34.08121856 18.38886733 44.02088083 10.6640625 53.56640625 C4.79056575 59.79206126 -2.40473207 64.15395702 -11.109375 64.5546875 C-12.55978506 64.57303457 -14.01044656 64.57650471 -15.4609375 64.56640625 C-16.21898682 64.56584229 -16.97703613 64.56527832 -17.75805664 64.56469727 C-21.65428018 64.50034207 -24.91588781 64.30628476 -28.5234375 62.69140625 C-32.67675907 61.01550457 -35.01318724 61.30520216 -39.34375 61.92578125 C-44.24047108 62.51171369 -49.16190447 62.33005109 -54.0859375 62.25390625 C-54.0859375 61.59390625 -54.0859375 60.93390625 -54.0859375 60.25390625 C-53.3228125 59.73828125 -52.5596875 59.22265625 -51.7734375 58.69140625 C-48.14686703 55.40219117 -46.70967363 52.1042754 -46.0859375 47.25390625 C-47.21814044 43.50033664 -47.21814044 43.50033664 -49.0859375 40.25390625 C-51.68410028 31.27843483 -50.13620721 21.984716 -45.796875 13.83203125 C-41.13032422 6.39549578 -35.49697368 0.98775252 -27.16015625 -2.05078125 C-18.48086587 -4.01382278 -7.95709326 -4.40865978 0 0 Z " fill="#599FD4" transform="translate(58.0859375,9.74609375)"/>
<path d="M0 0 C2.47693123 0.99759364 3.78340663 1.68487557 5.26953125 3.9140625 C4.87964045 7.63579169 3.2178815 9.26350388 0.5234375 11.734375 C-0.60868164 12.78431641 -0.60868164 12.78431641 -1.76367188 13.85546875 C-2.55708984 14.57605469 -3.35050781 15.29664063 -4.16796875 16.0390625 C-5.35229492 17.13154297 -5.35229492 17.13154297 -6.56054688 18.24609375 C-8.02307094 19.59515687 -9.48881863 20.94073924 -10.95874023 22.28173828 C-12.24243638 23.46442981 -13.49624125 24.679835 -14.73046875 25.9140625 C-19.65814481 25.8202832 -22.34477606 22.93557765 -25.60546875 19.6015625 C-26.1159375 19.11494141 -26.62640625 18.62832031 -27.15234375 18.12695312 C-28.59765625 16.67578125 -28.59765625 16.67578125 -30.73046875 13.9140625 C-30.6545833 10.81902002 -29.93605075 10.1196445 -27.73046875 7.9140625 C-25.41796875 7.4765625 -25.41796875 7.4765625 -22.73046875 7.9140625 C-19.91796875 10.4140625 -19.91796875 10.4140625 -17.73046875 12.9140625 C-13.06223632 11.10168991 -10.12487867 7.29222514 -6.88476562 3.63867188 C-3.35693119 -0.10565449 -3.35693119 -0.10565449 0 0 Z " fill="#FCFDFE" transform="translate(55.73046875,28.0859375)"/>
</svg>
