<?xml version="1.0" encoding="UTF-8"?>
<svg version="1.1" xmlns="http://www.w3.org/2000/svg" width="2458" height="512">
<path d="M0 0 C1.1240625 0.63679688 2.248125 1.27359375 3.40625 1.9296875 C42.26352889 24.96650284 69.23239872 62.18712926 80.4576416 105.76638794 C83.59476506 118.68610454 84.54494395 131.49376704 84.4375 144.75 C84.43379395 145.577276 84.43008789 146.404552 84.42626953 147.25689697 C84.24940823 175.09848335 77.85333056 201.65089486 64 226 C63.36320312 227.1240625 62.72640625 228.248125 62.0703125 229.40625 C39.03349716 268.26352889 1.81287074 295.23239872 -41.76638794 306.4576416 C-54.68610454 309.59476506 -67.49376704 310.54494395 -80.75 310.4375 C-81.577276 310.43379395 -82.404552 310.43008789 -83.25689697 310.42626953 C-96.5108241 310.34207509 -109.16878803 309.57109927 -122 306 C-122.94375488 305.7421875 -123.88750977 305.484375 -124.85986328 305.21875 C-137.90353711 301.53522845 -149.76202413 296.54013059 -161.51538086 289.7734375 C-166.57051992 286.82572434 -166.57051992 286.82572434 -172.234375 286.015625 C-173.14703125 286.34046875 -174.0596875 286.6653125 -175 287 C-176.04414063 287.34675781 -177.08828125 287.69351562 -178.1640625 288.05078125 C-179.30617188 288.46714844 -180.44828125 288.88351562 -181.625 289.3125 C-209.52362228 298.89557043 -239.87358059 299.19526176 -269 297 C-269 296.34 -269 295.68 -269 295 C-268.32195312 294.6596875 -267.64390625 294.319375 -266.9453125 293.96875 C-246.61667927 283.38209336 -234.16778271 266.53826471 -227.19213867 244.96850586 C-226.92248291 244.09202393 -226.65282715 243.21554199 -226.375 242.3125 C-226.11501221 241.47533447 -225.85502441 240.63816895 -225.5871582 239.77563477 C-223.81929769 233.58342287 -223.70366771 229.61741555 -226.63671875 223.6953125 C-227.31564951 222.50254204 -227.99949758 221.31256095 -228.6875 220.125 C-234.70987884 209.22099778 -238.65429406 197.98686905 -241.75 185.9375 C-241.94875732 185.17155518 -242.14751465 184.40561035 -242.35229492 183.61645508 C-245.42770965 170.98655858 -246.38563607 158.2792912 -246.3125 145.3125 C-246.31034485 144.61756439 -246.3081897 143.92262878 -246.30596924 143.20663452 C-246.1238901 106.4145458 -234.35834527 70.71129939 -211 42 C-210.54753906 41.44070801 -210.09507812 40.88141602 -209.62890625 40.30517578 C-194.65222944 21.91410076 -177.05554216 7.88789708 -156 -3 C-155.38688965 -3.31952637 -154.7737793 -3.63905273 -154.14208984 -3.96826172 C-143.84634914 -9.25855233 -133.17558733 -13.02261033 -122 -16 C-121.21431641 -16.21317871 -120.42863281 -16.42635742 -119.61914062 -16.64599609 C-80.30195308 -26.79730107 -35.05254016 -19.94300912 0 0 Z " fill="#59A1D7" transform="translate(295,106)"/>
<path d="M0 0 C9.9404779 7.75913591 16.813789 16.55209646 22 28 C24.72758966 24.65825108 27.23784173 21.23616638 29.6875 17.6875 C40.25843549 3.15002125 56.50893005 -5.83061532 73.99609375 -9.4921875 C96.37114279 -12.82576943 117.72730178 -9.20646392 136.06640625 4.25 C149.8274182 15.886572 157.52415127 32.27857497 160 50 C160.2737866 55.15319382 160.2537717 60.29740527 160.22705078 65.45556641 C160.22648564 66.99396762 160.22680524 68.53236936 160.22793579 70.07077026 C160.22850629 74.21885421 160.21680141 78.36682093 160.20278788 82.5148778 C160.19022965 86.86036607 160.18910602 91.20585746 160.18673706 95.55136108 C160.18053719 103.7675582 160.1641467 111.98370167 160.14403808 120.19987524 C160.12163245 129.5590509 160.11067395 138.91822921 160.10064721 148.27742505 C160.07977905 167.5183199 160.0431216 186.75914127 160 206 C140.53 206 121.06 206 101 206 C100.97812622 199.76246826 100.97812622 199.76246826 100.95581055 193.39892578 C100.90543838 179.64856516 100.83898765 165.89832148 100.76428509 152.1480732 C100.7193914 143.81259555 100.67996204 135.47716001 100.65356445 127.14160156 C100.63053218 119.87314283 100.59707609 112.60481808 100.55129844 105.33646572 C100.52743645 101.4908018 100.50866182 97.64527001 100.50238609 93.79953384 C100.49630322 90.17316065 100.47618928 86.54712519 100.44572449 82.92087746 C100.43286105 80.96906601 100.4345054 79.01717545 100.4367218 77.06532288 C100.31941917 65.99463975 98.56039377 57.31449955 91 49 C84.55570446 42.72987461 75.85330259 39.94392187 67 39.6875 C56.39940836 39.8587074 47.66210011 42.93392002 40.09375 50.453125 C31.05210946 61.45153849 30.70625317 75.67229431 30.68115234 89.29589844 C30.67110672 90.56561493 30.6610611 91.83533142 30.65071106 93.14352417 C30.62369782 96.58484014 30.60834813 100.02611589 30.59528303 103.46750927 C30.57952517 107.0789921 30.55277619 110.69039421 30.5272522 114.30181885 C30.48068632 121.12250383 30.44383573 127.94320439 30.41057932 134.76396585 C30.36500679 143.99362243 30.3042159 153.22317842 30.24433136 162.45275116 C30.15054535 176.96845004 30.07691037 191.48417916 30 206 C11.19 206 -7.62 206 -27 206 C-27.0093457 201.81658936 -27.01869141 197.63317871 -27.02832031 193.32299805 C-27.06212155 179.48481754 -27.11748839 165.64679333 -27.18390274 151.80873394 C-27.22363646 143.42058193 -27.25605763 135.03252296 -27.27099609 126.64428711 C-27.28404211 119.32928019 -27.31108158 112.01447848 -27.35461307 104.69958717 C-27.37716196 100.82981773 -27.39291466 96.96030078 -27.39188385 93.09045982 C-27.39113331 89.44020176 -27.40923988 85.79050043 -27.44116783 82.14038658 C-27.45360901 80.17803179 -27.44663357 78.21558317 -27.43885803 76.25320435 C-27.57000186 65.00687348 -29.94959857 56.07773112 -37.859375 47.875 C-44.99233782 41.62714936 -54.10774633 39.52143243 -63.421875 39.75 C-73.05942784 40.68455058 -81.16022099 44.71250776 -87.75 51.75 C-96.8280496 62.83390566 -97.29323086 76.41133697 -97.31884766 90.20410156 C-97.33391609 92.09404594 -97.33391609 92.09404594 -97.34928894 94.02217102 C-97.37629891 97.43662826 -97.39165087 100.85104495 -97.40471697 104.26558018 C-97.42047631 107.84903614 -97.44722479 111.43241078 -97.4727478 115.01580811 C-97.51931112 121.78336891 -97.55616293 128.5509454 -97.58942068 135.31858325 C-97.63499558 144.4764895 -97.69578552 153.6342944 -97.75566864 162.79211617 C-97.84945076 177.194693 -97.92308845 191.5973003 -98 206 C-117.47 206 -136.94 206 -157 206 C-157 136.04 -157 66.08 -157 -6 C-138.19 -6 -119.38 -6 -100 -6 C-99.67 5.22 -99.34 16.44 -99 28 C-95.535 22.06 -95.535 22.06 -92 16 C-70.67946888 -11.00600609 -29.2507792 -20.09595518 0 0 Z " fill="#FFFFFF" transform="translate(1136,189)"/>
<path d="M0 0 C26.4 0 52.8 0 80 0 C83.25985443 7.82365063 86.3298343 15.51604043 89.046875 23.515625 C89.41490738 24.58782288 89.78293976 25.66002075 90.16212463 26.76470947 C90.95062103 29.06240415 91.73749132 31.3606574 92.52285767 33.65942383 C94.64005484 39.85426978 96.77116153 46.04432926 98.90234375 52.234375 C99.11853552 52.86266205 99.33472729 53.4909491 99.55747032 54.13827515 C103.73789786 66.28443034 108.00610959 78.39803181 112.3125 90.5 C118.94315663 109.14313957 125.48736151 127.81540894 132 146.5 C138.12438133 164.0694183 144.2655292 181.63217412 150.49316406 199.16534424 C156.93987022 217.3154639 163.35723439 235.47593622 169.72957611 253.65230179 C170.98272285 257.22674792 172.23740644 260.80063355 173.49633789 264.37304688 C174.67781759 267.72600274 175.85451801 271.08059808 177.02763367 274.43648911 C177.67064937 276.27220639 178.3184761 278.10623623 178.96643066 279.94021606 C179.35262573 281.04807465 179.7388208 282.15593323 180.13671875 283.29736328 C180.47405029 284.25845001 180.81138184 285.21953674 181.15893555 286.20974731 C182 289 182 289 183 295 C160.56 295 138.12 295 115 295 C109.52399554 278.57198661 109.52399554 278.57198661 107.01774597 271.04692078 C104.75390841 264.25088364 102.4837833 257.45706694 100.19921875 250.66796875 C99.782771 249.42764893 99.36632324 248.1873291 98.93725586 246.90942383 C98.15794326 244.58943442 97.37628118 242.27023264 96.59204102 239.9519043 C96.24713623 238.92363525 95.90223145 237.89536621 95.546875 236.8359375 C95.24620117 235.94438965 94.94552734 235.0528418 94.63574219 234.13427734 C94 232 94 232 94 230 C58.36 230 22.72 230 -14 230 C-14.99 233.63 -15.98 237.26 -17 241 C-17.64249483 243.07548168 -18.30293109 245.14563113 -18.99291992 247.20581055 C-19.35800659 248.30082886 -19.72309326 249.39584717 -20.09924316 250.52404785 C-20.47254761 251.63372925 -20.84585205 252.74341064 -21.23046875 253.88671875 C-21.75670837 255.46241638 -21.75670837 255.46241638 -22.2935791 257.06994629 C-23.58824072 260.94357272 -24.88816932 264.81543721 -26.1875 268.6875 C-29.095625 277.370625 -32.00375 286.05375 -35 295 C-57.11 295 -79.22 295 -102 295 C-100.72048624 289.24218808 -99.45051939 283.9633839 -97.48046875 278.48046875 C-97.23010864 277.76982269 -96.97974854 277.05917664 -96.72180176 276.32699585 C-96.17290287 274.77098666 -95.62161391 273.21581898 -95.06820679 271.66140747 C-94.15706277 269.10200176 -93.25224414 266.54043187 -92.34887695 263.97827148 C-90.98839992 260.12057899 -89.62563244 256.26370525 -88.26171875 252.40722656 C-84.49624782 241.75039738 -80.76725005 231.08074488 -77.03460693 220.41238403 C-76.13340935 217.83665928 -75.23191676 215.2610381 -74.33013916 212.68551636 C-67.85937856 194.20464498 -61.41979471 175.71315357 -55.00967407 157.21115112 C-49.75242744 142.0371296 -44.46705903 126.87327302 -39.15527344 111.71826172 C-38.58396923 110.08822145 -38.01268015 108.45817589 -37.44140625 106.828125 C-37.01751114 105.61861679 -37.01751114 105.61861679 -36.58505249 104.38467407 C-34.53921173 98.54491385 -32.50030513 92.70276044 -30.46484375 86.859375 C-30.16641068 86.00268723 -29.8679776 85.14599945 -29.5605011 84.26335144 C-29.25976181 83.40002701 -28.95902252 82.53670258 -28.64916992 81.6472168 C-19.16095763 54.40973508 -9.58117821 27.20495128 0 0 Z M40 56 C36.49181554 67.41220711 33.01836854 78.83247856 29.7109375 90.3046875 C29.30628014 91.7079554 29.30628014 91.7079554 28.89344788 93.13957214 C28.33891883 95.06347075 27.78448143 96.98739577 27.23013306 98.91134644 C20.93930779 120.71359883 14.2839328 142.38273621 7.31176758 163.97631836 C6.99739243 164.95095535 6.99739243 164.95095535 6.67666626 165.94528198 C6.18614178 167.43477472 5.68169067 168.91970441 5.16879272 170.40164185 C4.89354767 171.20052826 4.61830261 171.99941467 4.3347168 172.82250977 C4.08014206 173.54938492 3.82556732 174.27626007 3.5632782 175.02516174 C2.86285584 177.13855727 2.86285584 177.13855727 3 180 C27.75 180 52.5 180 78 180 C76.39125 174.988125 74.7825 169.97625 73.125 164.8125 C67.62332907 147.49950551 62.41159333 130.10307679 57.27474213 112.67913437 C56.69626739 110.71723464 56.11713245 108.75553074 55.53790283 106.79385376 C50.55423067 89.900253 45.69771903 72.97538673 41 56 C40.67 56 40.34 56 40 56 Z " fill="#FFFFFF" transform="translate(2150,101)"/>
<path d="M0 0 C2.04611784 1.78726241 4.05517398 3.60591798 6.0625 5.4375 C6.78824219 6.08074219 7.51398438 6.72398437 8.26171875 7.38671875 C19.28913475 17.69835927 26.99563085 30.75660263 33.0625 44.4375 C33.54460937 45.51515625 34.02671875 46.5928125 34.5234375 47.703125 C38.73868477 57.87081236 42.0625 69.37557795 42.0625 80.4375 C21.6025 80.4375 1.1425 80.4375 -19.9375 80.4375 C-21.5875 75.4875 -23.2375 70.5375 -24.9375 65.4375 C-31.39707108 50.21136816 -42.08145465 38.42664325 -57.52661133 31.92553711 C-76.04620355 24.64339981 -96.20863386 24.73410973 -114.9375 31.4375 C-135.11373537 40.36945139 -148.52383267 55.84137858 -156.44140625 76.16796875 C-167.80317831 108.35400364 -167.40287174 147.40334059 -153.296875 178.75 C-144.37927632 196.38019508 -131.23456752 209.61374608 -112.5625 216.375 C-92.18645019 222.4646364 -70.30952504 222.10897502 -51.23828125 211.83984375 C-33.54464724 201.05543864 -26.77611767 186.81358341 -19.9375 167.4375 C0.5225 167.4375 20.9825 167.4375 42.0625 167.4375 C38.96838167 198.37868334 24.44221846 225.65191444 1.01171875 246.07421875 C-29.81126912 270.7734342 -67.71331007 279.09113699 -106.64453125 274.8984375 C-111.45174403 274.27887715 -116.19543224 273.43605659 -120.9375 272.4375 C-121.61022949 272.29828125 -122.28295898 272.1590625 -122.97607422 272.015625 C-144.54691371 267.36678356 -164.87637863 256.44618322 -180.9375 241.4375 C-181.7106958 240.72787109 -181.7106958 240.72787109 -182.49951172 240.00390625 C-211.10322019 213.55913725 -224.6879365 175.34499848 -226.8125 137.05859375 C-228.39786396 91.13258144 -219.63675803 46.42602788 -187.62109375 11.8125 C-140.94327754 -37.28842756 -52.43677087 -44.46276273 0 0 Z " fill="#FFFFFF" transform="translate(663.9375,124.5625)"/>
<path d="M0 0 C0.61875 0.53882813 1.2375 1.07765625 1.875 1.6328125 C23.74965727 21.78585323 31.51898342 52.74601949 32.87670898 81.35766602 C33.42878014 98.66761995 32.17138955 116.4048064 27 133 C26.6908667 133.99966797 26.6908667 133.99966797 26.37548828 135.01953125 C19.27071306 157.25317339 5.17740262 177.68010194 -15.59765625 189.03125 C-26.7519437 194.74262278 -39.44337136 198.46715414 -52 199 C-52.82242187 199.03996094 -53.64484375 199.07992187 -54.4921875 199.12109375 C-74.13914629 199.60514926 -91.3177934 194.14198011 -106.34375 181.54296875 C-111.66688407 176.44685069 -115.71443364 170.57113273 -119 164 C-119.33 201.29 -119.66 238.58 -120 277 C-139.47 277 -158.94 277 -179 277 C-179 179.65 -179 82.3 -179 -18 C-159.53 -18 -140.06 -18 -120 -18 C-119.67 -8.76 -119.34 0.48 -119 10 C-116.36 6.37 -113.72 2.74 -111 -1 C-100.51068528 -11.98745042 -86.85769673 -18.32561459 -72 -21 C-71.24203125 -21.14179688 -70.4840625 -21.28359375 -69.703125 -21.4296875 C-44.29526482 -25.02183325 -18.77597803 -17.31703379 0 0 Z M-108.1875 42.125 C-121.31957957 57.50679838 -123.07988175 78.65115095 -122 98 C-120.32123003 115.24213188 -113.87328675 130.9034184 -100.46875 142.2421875 C-89.33685441 150.16837898 -76.29255692 151.60651021 -63.046875 149.5390625 C-51.65178145 146.49320416 -42.58021656 138.37414865 -36.4375 128.484375 C-26.37429837 109.34241538 -24.42271382 84.798093 -30.03125 63.921875 C-34.6149706 50.09678223 -40.93577643 37.66927158 -54.36328125 30.7890625 C-73.85888164 21.79109309 -93.65540402 27.15336992 -108.1875 42.125 Z " fill="#FFFFFF" transform="translate(1518,201)"/>
<path d="M0 0 C0.74121094 0.72703125 1.48242188 1.4540625 2.24609375 2.203125 C2.81199219 2.74453125 3.37789062 3.2859375 3.9609375 3.84375 C17.87019075 18.4540001 19.41082174 38.95506509 19.35961914 57.99438477 C19.35933662 59.47352598 19.35949627 60.95266734 19.36006165 62.43180847 C19.36034709 66.42289623 19.35449139 70.41395358 19.34748769 74.4050343 C19.3412119 78.58503898 19.34064702 82.76504444 19.33946228 86.9450531 C19.33636138 94.84960396 19.3281648 102.75414089 19.31811279 110.65868562 C19.30691301 119.66234868 19.30143148 128.66601242 19.29641736 137.66968071 C19.28598109 156.1808383 19.26765112 174.6919768 19.24609375 193.203125 C0.10609375 193.203125 -19.03390625 193.203125 -38.75390625 193.203125 C-39.08390625 184.293125 -39.41390625 175.383125 -39.75390625 166.203125 C-42.39390625 169.503125 -45.03390625 172.803125 -47.75390625 176.203125 C-59.28026876 188.84494195 -73.75586294 195.26003791 -90.81958008 196.40966797 C-115.01871042 197.13743301 -137.92935778 194.89734858 -156.37890625 177.765625 C-157.16265625 176.92 -157.94640625 176.074375 -158.75390625 175.203125 C-159.47707031 174.45289063 -159.47707031 174.45289063 -160.21484375 173.6875 C-171.09887445 161.86423822 -174.08319871 146.02487112 -173.90625 130.4140625 C-173.11230868 113.68022244 -168.00513477 99.45470389 -155.6796875 87.78515625 C-151.98098222 84.74666611 -147.97228509 82.44339399 -143.75390625 80.203125 C-142.820625 79.6978125 -141.88734375 79.1925 -140.92578125 78.671875 C-122.90103266 69.6132834 -102.52131623 67.77253747 -82.75790405 65.51774597 C-79.90173435 65.18939002 -77.04674558 64.85130934 -74.19177246 64.51272583 C-72.12272558 64.27217284 -70.05237509 64.04763828 -67.98144531 63.82397461 C-53.41068129 62.26531338 -53.41068129 62.26531338 -41.75390625 54.203125 C-39.78481005 48.2958364 -40.33016361 42.80718316 -42.71875 37.15234375 C-46.89356344 29.29109127 -52.78193591 25.86044845 -61 23.12109375 C-74.1230771 19.91201662 -88.19514855 21.99505704 -99.75390625 28.953125 C-106.32428042 33.73925077 -108.69159105 39.51799525 -110.75390625 47.203125 C-129.45774759 47.33600834 -148.06634389 47.0530734 -166.75390625 46.203125 C-165.48868151 27.38344312 -158.43266598 12.39729099 -144.75390625 -0.796875 C-107.81282748 -32.68718625 -35.92488819 -33.8512207 0 0 Z M-46.48022461 96.7265625 C-57.32949982 99.58135873 -68.21384772 101.59621638 -79.31152344 103.23901367 C-92.27068595 105.2857158 -104.97026188 108.90575197 -113.49609375 119.41796875 C-116.83970081 124.16339864 -117.57048451 129.52842289 -116.75390625 135.203125 C-114.85742177 141.89192354 -111.63045987 146.4892337 -105.75390625 150.203125 C-94.44810605 156.51333906 -81.05140767 156.20053971 -68.75390625 153.203125 C-65.55505866 152.15686656 -62.68908933 150.84401148 -59.75390625 149.203125 C-58.99335937 148.78160156 -58.2328125 148.36007812 -57.44921875 147.92578125 C-47.92994807 142.14050058 -42.42705204 133.95882753 -39.75390625 123.203125 C-39.30983721 118.29037659 -39.37108054 113.44294792 -39.50390625 108.515625 C-39.52195312 107.22978516 -39.54 105.94394531 -39.55859375 104.61914062 C-39.6052774 101.47966495 -39.67074533 98.34181009 -39.75390625 95.203125 C-42.04259028 95.203125 -44.27737576 96.13983012 -46.48022461 96.7265625 Z " fill="#FFFFFF" transform="translate(1898.75390625,202.796875)"/>
<path d="M0 0 C19.47 0 38.94 0 59 0 C59.04898438 8.86101562 59.09796875 17.72203125 59.1484375 26.8515625 C59.18835469 33.20149313 59.22947718 39.55140705 59.27233124 45.9013176 C59.32759414 54.11355153 59.38007407 62.32577126 59.421875 70.53808594 C59.45499603 77.04332894 59.4949353 83.54848979 59.54279006 90.05364168 C59.56785706 93.49251982 59.58969458 96.93134487 59.60334396 100.37028885 C59.6203673 104.22565541 59.64943985 108.0807651 59.68115234 111.93603516 C59.68331253 113.05454361 59.68547272 114.17305206 59.68769836 115.32545471 C59.84330765 130.25447102 60.99247475 144.83086527 71.75 156.0234375 C80.05399567 163.31826703 90.60719641 165.40793623 101.46875 164.80859375 C113.04772997 163.30711387 121.93716348 159.32055261 129.46875 150.2265625 C138.27551464 137.4997136 138.1254119 121.56440083 138.20532227 106.71386719 C138.21522186 105.55143997 138.22512146 104.38901276 138.23532104 103.19136047 C138.26661756 99.39321854 138.29156599 95.59506416 138.31640625 91.796875 C138.33700337 89.14601245 138.35795621 86.49515508 138.37937927 83.84429932 C138.42900591 77.60797062 138.47405424 71.37161786 138.51740164 65.1352427 C138.57191432 57.32841104 138.63263825 49.52162917 138.69335938 41.71484375 C138.8014846 27.80993433 138.90031514 13.90497817 139 0 C158.47 0 177.94 0 198 0 C198 70.29 198 140.58 198 213 C178.86 213 159.72 213 140 213 C139.67 202.44 139.34 191.88 139 181 C136.03 184.96 133.06 188.92 130 193 C118.2983478 206.10585047 103.00773543 215.08581682 85.09423828 216.17700195 C61.89012955 216.64722893 40.8716772 215.19988087 23.1315918 198.32983398 C5.27240857 180.48276073 -0.19367062 156.61713568 -0.24884033 132.05873108 C-0.2380545 130.13389137 -0.2380545 130.13389137 -0.22705078 128.17016602 C-0.22648463 126.75910449 -0.22680718 125.34804239 -0.22793579 123.9369812 C-0.22850237 120.15901079 -0.21686261 116.38117112 -0.20278788 112.60323071 C-0.19016276 108.63547278 -0.18910084 104.66771083 -0.18673706 100.69993591 C-0.18055652 93.20992992 -0.16419282 85.71998331 -0.14403808 78.2300033 C-0.1215715 69.69294597 -0.11065878 61.1558856 -0.10064721 52.618806 C-0.07982296 35.07916364 -0.04319035 17.53960253 0 0 Z " fill="#FFFFFF" transform="translate(740,183)"/>
<path d="M0 0 C20.46 0 40.92 0 62 0 C62 97.35 62 194.7 62 295 C41.54 295 21.08 295 0 295 C0 197.65 0 100.3 0 0 Z " fill="#FFFFFF" transform="translate(2359,101)"/>
<path d="M0 0 C1.28777344 -0.00128906 2.57554688 -0.00257813 3.90234375 -0.00390625 C4.56669434 -0.00181152 5.23104492 0.0002832 5.91552734 0.00244141 C7.96068615 0.00783243 10.00562889 0.00246189 12.05078125 -0.00390625 C13.97470703 -0.00197266 13.97470703 -0.00197266 15.9375 0 C17.11538086 0.00112793 18.29326172 0.00225586 19.50683594 0.00341797 C22.203125 0.1328125 22.203125 0.1328125 23.203125 1.1328125 C23.29646205 2.72892232 23.32057872 4.32914678 23.31665039 5.92797852 C23.31653709 7.45945274 23.31653709 7.45945274 23.31642151 9.02186584 C23.31126022 10.1322673 23.30609894 11.24266876 23.30078125 12.38671875 C23.2993663 13.51730209 23.29795135 14.64788544 23.29649353 15.81272888 C23.29087519 19.44028315 23.27831958 23.06777674 23.265625 26.6953125 C23.26061236 29.14778557 23.25604905 31.6002596 23.25195312 34.05273438 C23.2408998 40.07944795 23.22414384 46.10612589 23.203125 52.1328125 C21.97118408 52.06352539 20.73924316 51.99423828 19.4699707 51.92285156 C17.83545031 51.83136065 16.20092877 51.73989038 14.56640625 51.6484375 C13.75659302 51.60283691 12.94677979 51.55723633 12.11242676 51.51025391 C-3.86909009 50.6176584 -18.39583352 50.90371936 -31.015625 62.1015625 C-42.8096531 74.24765114 -44.0832672 90.46780687 -44.11572266 106.62426758 C-44.13079109 108.3827578 -44.13079109 108.3827578 -44.14616394 110.17677307 C-44.17673622 114.00195889 -44.19395831 117.82707559 -44.2109375 121.65234375 C-44.22967008 124.32420322 -44.24915176 126.99604682 -44.2696228 129.66789246 C-44.31613136 135.95021901 -44.35300914 142.23256242 -44.38629568 148.51497144 C-44.42849595 156.38048412 -44.4837856 164.24589834 -44.5390625 172.11132812 C-44.63744508 186.11843506 -44.71626386 200.12556701 -44.796875 214.1328125 C-64.266875 214.1328125 -83.736875 214.1328125 -103.796875 214.1328125 C-103.796875 143.8428125 -103.796875 73.5528125 -103.796875 1.1328125 C-84.986875 1.1328125 -66.176875 1.1328125 -46.796875 1.1328125 C-46.466875 12.0228125 -46.136875 22.9128125 -45.796875 34.1328125 C-42.331875 27.2028125 -42.331875 27.2028125 -38.796875 20.1328125 C-28.3463546 7.21480812 -17.04234824 0.01625735 0 0 Z " fill="#FFFFFF" transform="translate(1687.796875,181.8671875)"/>
<path d="M0 0 C5.79507646 2.73804071 9.86866072 6.43683099 14.3125 11 C14.93189453 11.61617187 15.55128906 12.23234375 16.18945312 12.8671875 C20.30861375 17.03554548 23.2803224 20.26125657 23.3125 26.375 C23.32925781 27.10460937 23.34601563 27.83421875 23.36328125 28.5859375 C22.39472775 35.0221317 18.30772197 39.1163569 13.86328125 43.46484375 C13.26501022 44.06124161 12.6667392 44.65763947 12.05033875 45.27210999 C10.78714419 46.52860744 9.5203694 47.78151469 8.25024414 49.03100586 C6.32902147 50.92124497 4.41850898 52.82177773 2.50976562 54.72460938 C-7.45294985 64.62280645 -7.45294985 64.62280645 -12.05078125 68.53515625 C-18.22609532 73.79634233 -23.80061821 79.73569441 -29.5 85.5 C-42.6670394 98.81703009 -42.6670394 98.81703009 -46.953125 102.44921875 C-50.7593695 105.68311835 -54.25281753 109.1929933 -57.765625 112.73828125 C-58.37140381 113.34956879 -58.97718262 113.96085632 -59.60131836 114.59066772 C-62.12973838 117.14684659 -64.65445942 119.70661073 -67.17480469 122.27075195 C-69.03403347 124.16014451 -70.89940514 126.04329739 -72.765625 127.92578125 C-73.61571136 128.79605705 -73.61571136 128.79605705 -74.48297119 129.68391418 C-79.16444601 134.39498454 -82.11961884 136.29387416 -88.75 136.5 C-89.73484375 136.5515625 -90.7196875 136.603125 -91.734375 136.65625 C-100.35040688 134.92479862 -106.99161934 126.25960303 -112.90625 120.25390625 C-114.31863411 118.83357244 -115.73102093 117.41324132 -117.14356232 115.99306393 C-119.10419534 114.01938811 -121.06020957 112.04116687 -123.01617432 110.06286621 C-126.43742933 106.60347372 -129.86353632 103.14890388 -133.29333496 99.69798279 C-135.11265802 97.86653606 -136.92930277 96.03242345 -138.74279785 94.19520569 C-143.14370006 89.75986002 -147.5983258 85.48065574 -152.36633301 81.44029236 C-157.4273288 76.97835881 -159.73980331 72.7320652 -160.375 66.0625 C-160.59970105 61.08843587 -157.48840088 57.65133749 -154.32958984 54.14672852 C-152.41658189 52.14863663 -150.46741205 50.19449074 -148.5 48.25 C-147.83613281 47.57839844 -147.17226562 46.90679687 -146.48828125 46.21484375 C-145.84246094 45.57160156 -145.19664062 44.92835938 -144.53125 44.265625 C-143.65823242 43.39599121 -143.65823242 43.39599121 -142.76757812 42.50878906 C-139.21506104 39.47639189 -136.25459754 38.6898403 -131.625 38.625 C-130.25214844 38.58246094 -130.25214844 38.58246094 -128.8515625 38.5390625 C-122.1389885 39.62410871 -117.42403083 45.30516694 -112.8515625 49.953125 C-112.19417084 50.61334656 -111.53677917 51.27356812 -110.85946655 51.95379639 C-108.77653738 54.04785262 -106.70070042 56.14878065 -104.625 58.25 C-103.20749524 59.67754421 -101.78953114 61.10463247 -100.37109375 62.53125 C-96.90872506 66.01557984 -93.45269656 69.50608668 -90 73 C-85.7979958 71.07768284 -82.95879289 68.19478645 -79.765625 64.92578125 C-79.16876892 64.3237236 -78.57191284 63.72166595 -77.95697021 63.10136414 C-76.04982435 61.17644085 -74.14947934 59.24498653 -72.25 57.3125 C-69.75861981 54.78436907 -67.26405246 52.25944811 -64.765625 49.73828125 C-64.16086334 49.12788498 -63.55610168 48.51748871 -62.93301392 47.88859558 C-59.45916435 44.40271342 -55.90195569 41.10785547 -52.14648438 37.92602539 C-49.1314611 35.22066613 -46.29537925 32.3501049 -43.4453125 29.47265625 C-42.8536731 28.87550308 -42.26203369 28.27834991 -41.65246582 27.6631012 C-39.19024728 25.1732894 -36.73157106 22.68005444 -34.27783203 20.18188477 C-11.79545776 -2.68007759 -11.79545776 -2.68007759 0 0 Z " fill="#FEFEFE" transform="translate(289,186)"/>
<path d="M0 0 C6.23575723 3.89388396 10.36898097 10.39702382 13.3828125 16.97265625 C16.08066112 29.92232961 14.48382 40.45442236 7.3203125 51.59765625 C-0.10632333 59.22501196 -8.80707015 63.0232016 -19.3671875 63.41015625 C-29.78970443 63.11861732 -38.65974987 59.46201375 -45.9921875 51.97265625 C-52.52255295 43.38228281 -55.01616776 34.68381489 -53.9921875 23.97265625 C-52.37001232 15.09840377 -48.34110538 7.413293 -41.3046875 1.66015625 C-28.13164092 -7.29651746 -13.90525491 -7.1707491 0 0 Z " fill="#FFFFFF" transform="translate(2011.9921875,336.02734375)"/>
</svg>
